<svg width="46" height="46" viewBox="0 0 46 46" fill="none" xmlns="http://www.w3.org/2000/svg">
<g id="warning-svgrepo-com 1">
<path id="Vector" d="M20.5418 3.02617L1.8543 40.4012C1.15712 41.8459 1.76087 43.5816 3.20196 44.2788C3.59008 44.4657 4.01055 44.5663 4.4418 44.5699H41.8168C43.4196 44.5555 44.7098 43.2438 44.6954 41.641C44.6908 41.2113 44.5914 40.788 44.4043 40.4012L25.7168 3.02617C25.4749 2.5475 25.105 2.14531 24.6482 1.86432C24.1914 1.58334 23.6656 1.43457 23.1293 1.43457C22.593 1.43457 22.0672 1.58334 21.6104 1.86432C21.1536 2.14531 20.7837 2.5475 20.5418 3.02617Z" fill="#F2A600"/>
<path id="Vector_2" d="M19.2479 5.64932L1.71037 40.6524C1.05272 42.0073 1.62053 43.6388 2.97537 44.2965C3.33115 44.469 3.72287 44.5624 4.11818 44.5696H39.1572C39.5136 44.5663 39.8657 44.4929 40.1937 44.3535C40.5216 44.2141 40.8189 44.0115 41.0685 43.7572C41.3181 43.5029 41.5152 43.2019 41.6485 42.8715C41.7818 42.541 41.8487 42.1875 41.8454 41.8312C41.8413 41.4222 41.7455 41.0194 41.5651 40.6524L24.0635 5.64932C23.7553 5.01107 23.2063 4.52125 22.5372 4.28743C21.8681 4.05362 21.1336 4.09492 20.4949 4.40228C19.9509 4.66599 19.5116 5.1053 19.2479 5.64932Z" fill="#FFCC32"/>
<g id="Group" opacity="0.2">
<path id="Vector_3" d="M23.1292 12.2256C24.7823 12.2256 26.112 13.5553 26.0042 15.1006L24.7823 32.3506C24.6457 33.2634 23.7976 33.8959 22.8848 33.7593C22.5298 33.7071 22.201 33.5418 21.9473 33.2881C21.6935 33.0344 21.5283 32.7056 21.476 32.3506L20.2542 15.1006C20.1464 13.5553 21.476 12.2256 23.1292 12.2256Z" fill="#424242"/>
<path id="Vector_4" d="M23.1289 35.2256C24.3184 35.2256 25.2852 36.1923 25.2852 37.3818C25.2852 38.5714 24.3184 39.5381 23.1289 39.5381C21.9394 39.5381 20.9727 38.5714 20.9727 37.3818C20.9727 36.1923 21.9394 35.2256 23.1289 35.2256Z" fill="#424242"/>
</g>
<path id="Vector_5" d="M23.1292 12.2256C24.7823 12.2256 26.112 13.5553 26.0042 15.1006L24.7823 32.3506C24.6457 33.2634 23.7976 33.8959 22.8848 33.7593C22.5298 33.7071 22.201 33.5418 21.9473 33.2881C21.6935 33.0344 21.5283 32.7056 21.476 32.3506L20.2542 15.1006C20.1464 13.5553 21.476 12.2256 23.1292 12.2256Z" fill="url(#paint0_linear_625_2606)"/>
<path id="Vector_6" d="M23.1289 39.5381C24.3198 39.5381 25.2852 38.5727 25.2852 37.3818C25.2852 36.191 24.3198 35.2256 23.1289 35.2256C21.938 35.2256 20.9727 36.191 20.9727 37.3818C20.9727 38.5727 21.938 39.5381 23.1289 39.5381Z" fill="url(#paint1_linear_625_2606)"/>
<path id="Vector_7" d="M19.248 8.2726C18.8167 8.81166 11.5573 23.007 11.5573 23.007C11.5573 23.007 10.9105 24.0851 11.8089 24.696C12.6355 25.271 13.3901 24.5882 13.7136 24.0492C14.037 23.5101 20.6136 10.7882 20.8651 10.1773C21.0808 9.50526 20.9298 8.77213 20.4698 8.23666C20.0026 7.80541 19.5355 7.87729 19.248 8.2726Z" fill="#FFF170"/>
<path id="Vector_8" d="M11.2699 28.2576C11.9249 28.2576 12.4559 27.7267 12.4559 27.0717C12.4559 26.4167 11.9249 25.8857 11.2699 25.8857C10.6149 25.8857 10.084 26.4167 10.084 27.0717C10.084 27.7267 10.6149 28.2576 11.2699 28.2576Z" fill="#FFF170"/>
</g>
<defs>
<linearGradient id="paint0_linear_625_2606" x1="23.1292" y1="11.5967" x2="23.1292" y2="39.8759" gradientUnits="userSpaceOnUse">
<stop stop-color="#424242"/>
<stop offset="1" stop-color="#212121"/>
</linearGradient>
<linearGradient id="paint1_linear_625_2606" x1="23.1289" y1="13.027" x2="23.1289" y2="41.3062" gradientUnits="userSpaceOnUse">
<stop stop-color="#424242"/>
<stop offset="1" stop-color="#212121"/>
</linearGradient>
</defs>
</svg>
